<svg width="47" height="11" viewBox="0 0 47 11" fill="none" xmlns="http://www.w3.org/2000/svg">
<path d="M4.06321 10C6.7223 10 8.3331 8.35511 8.3331 5.62784C8.3331 2.90909 6.7223 1.27273 4.08878 1.27273H0.96946V10H4.06321ZM2.81463 8.41903V2.85369H3.99077C5.62713 2.85369 6.49219 3.68892 6.49219 5.62784C6.49219 7.57528 5.62713 8.41903 3.98651 8.41903H2.81463ZM12.6488 10.1278C14.2681 10.1278 15.359 9.33949 15.6147 8.125L13.9357 8.0142C13.7525 8.51278 13.2837 8.77273 12.6786 8.77273C11.771 8.77273 11.1957 8.17188 11.1957 7.19602V7.19176H15.6531V6.69318C15.6531 4.46875 14.3065 3.36932 12.5763 3.36932C10.6502 3.36932 9.40163 4.73722 9.40163 6.7571C9.40163 8.83239 10.6332 10.1278 12.6488 10.1278ZM11.1957 6.06676C11.234 5.32102 11.8008 4.72443 12.6062 4.72443C13.3945 4.72443 13.94 5.28693 13.9442 6.06676H11.1957ZM20.3192 3.45455H19.0877V1.88636H17.2724V3.45455H16.3775V4.81818H17.2724V8.22727C17.2638 9.50994 18.1374 10.1449 19.4542 10.0895C19.9229 10.0724 20.2553 9.97869 20.4386 9.91903L20.1531 8.56818C20.0636 8.58523 19.8718 8.62784 19.7013 8.62784C19.3391 8.62784 19.0877 8.49148 19.0877 7.98864V4.81818H20.3192V3.45455ZM23.3683 10.1236C24.3356 10.1236 24.962 9.7017 25.2816 9.09233H25.3327V10H27.0543V5.58523C27.0543 4.02557 25.7333 3.36932 24.2759 3.36932C22.7077 3.36932 21.6765 4.11932 21.4251 5.3125L23.104 5.44886C23.2276 5.0142 23.6154 4.6946 24.2674 4.6946C24.8853 4.6946 25.239 5.00568 25.239 5.54261V5.56818C25.239 5.99006 24.7915 6.04545 23.6538 6.15625C22.3583 6.27557 21.195 6.71023 21.195 8.17188C21.195 9.46733 22.1197 10.1236 23.3683 10.1236ZM23.8881 8.87074C23.3299 8.87074 22.9293 8.6108 22.9293 8.11222C22.9293 7.60085 23.3512 7.34943 23.9904 7.25994C24.3867 7.20455 25.0344 7.1108 25.2518 6.96591V7.66051C25.2518 8.34659 24.685 8.87074 23.8881 8.87074ZM28.4627 10H30.2781V3.45455H28.4627V10ZM29.3746 2.6108C29.9158 2.6108 30.359 2.19744 30.359 1.69034C30.359 1.1875 29.9158 0.774147 29.3746 0.774147C28.8377 0.774147 28.3945 1.1875 28.3945 1.69034C28.3945 2.19744 28.8377 2.6108 29.3746 2.6108ZM33.5476 1.27273H31.7322V10H33.5476V1.27273ZM40.4478 5.32102C40.2859 4.11506 39.3143 3.36932 37.6609 3.36932C35.9862 3.36932 34.8825 4.14489 34.8867 5.40625C34.8825 6.38636 35.5004 7.02131 36.7788 7.27699L37.9123 7.50284C38.4833 7.6179 38.7433 7.8267 38.7518 8.15483C38.7433 8.54261 38.3214 8.8196 37.6864 8.8196C37.0387 8.8196 36.6083 8.54261 36.4975 8.00994L34.712 8.10369C34.8825 9.35653 35.9478 10.1278 37.6822 10.1278C39.3782 10.1278 40.5927 9.26278 40.5969 7.97159C40.5927 7.02557 39.9748 6.45881 38.7049 6.19886L37.5202 5.96023C36.9109 5.82812 36.685 5.61932 36.6893 5.30398C36.685 4.91193 37.1282 4.65625 37.6907 4.65625C38.3214 4.65625 38.6964 5.00142 38.7859 5.4233L40.4478 5.32102ZM43.8324 6.18182H44.9787L44.8679 4.53267L46.2486 5.45739L46.8196 4.4517L45.3366 3.72727L46.8196 3.00284L46.2486 1.99716L44.8679 2.92188L44.9787 1.27273H43.8324L43.9389 2.92188L42.5582 1.99716L41.9872 3.00284L43.4744 3.72727L41.9872 4.4517L42.5582 5.45739L43.9389 4.53267L43.8324 6.18182Z" fill="black"/>
</svg>
