<svg width="99" height="13" viewBox="0 0 99 13" fill="none" xmlns="http://www.w3.org/2000/svg">
<path d="M0.0261008 10H1.87127V6.90625H3.21786L4.87127 10H6.9082L5.05451 6.60795C6.04741 6.18182 6.59712 5.31676 6.59712 4.12358C6.59712 2.3892 5.45082 1.27273 3.46928 1.27273H0.0261008V10ZM1.87127 5.4233V2.78125H3.11559C4.18093 2.78125 4.69656 3.25426 4.69656 4.12358C4.69656 4.98864 4.18093 5.4233 3.12411 5.4233H1.87127ZM10.7445 10.1278C12.3638 10.1278 13.4547 9.33949 13.7104 8.125L12.0314 8.0142C11.8482 8.51278 11.3794 8.77273 10.7743 8.77273C9.86665 8.77273 9.29137 8.17188 9.29137 7.19602V7.19176H13.7488V6.69318C13.7488 4.46875 12.4022 3.36932 10.6721 3.36932C8.74592 3.36932 7.49734 4.73722 7.49734 6.7571C7.49734 8.83239 8.72887 10.1278 10.7445 10.1278ZM9.29137 6.06676C9.32972 5.32102 9.89648 4.72443 10.7019 4.72443C11.4902 4.72443 12.0357 5.28693 12.04 6.06676H9.29137ZM21.074 12.4545V3.45455H19.2843V4.55398H19.2033C18.9604 4.02131 18.4363 3.36932 17.3411 3.36932C15.905 3.36932 14.6905 4.4858 14.6905 6.7358C14.6905 8.92614 15.8539 10.1065 17.3453 10.1065C18.4022 10.1065 18.9519 9.49716 19.2033 8.9517H19.2587V12.4545H21.074ZM19.2971 6.72727C19.2971 7.89489 18.7942 8.66193 17.9206 8.66193C17.03 8.66193 16.5442 7.86932 16.5442 6.72727C16.5442 5.59375 17.0215 4.81392 17.9206 4.81392C18.8027 4.81392 19.2971 5.55966 19.2971 6.72727ZM26.7246 7.21307C26.7289 8.09091 26.128 8.55114 25.476 8.55114C24.79 8.55114 24.3468 8.0696 24.3425 7.2983V3.45455H22.5272V7.62216C22.5314 9.15199 23.4263 10.0852 24.7431 10.0852C25.7275 10.0852 26.4348 9.57812 26.7289 8.81108H26.7971V10H28.54V3.45455H26.7246V7.21307ZM29.992 10H31.8074V3.45455H29.992V10ZM30.9039 2.6108C31.4451 2.6108 31.8883 2.19744 31.8883 1.69034C31.8883 1.1875 31.4451 0.774147 30.9039 0.774147C30.367 0.774147 29.9238 1.1875 29.9238 1.69034C29.9238 2.19744 30.367 2.6108 30.9039 2.6108ZM33.2615 10H35.0769V6.29688C35.0769 5.49148 35.665 4.9375 36.4661 4.9375C36.7175 4.9375 37.0627 4.98011 37.2331 5.03551V3.42472C37.0712 3.38636 36.8453 3.3608 36.6621 3.3608C35.9292 3.3608 35.3283 3.78693 35.0897 4.59659H35.0215V3.45455H33.2615V10ZM40.85 10.1278C42.4693 10.1278 43.5602 9.33949 43.8159 8.125L42.1369 8.0142C41.9537 8.51278 41.4849 8.77273 40.8798 8.77273C39.9721 8.77273 39.3968 8.17188 39.3968 7.19602V7.19176H43.8542V6.69318C43.8542 4.46875 42.5076 3.36932 40.7775 3.36932C38.8514 3.36932 37.6028 4.73722 37.6028 6.7571C37.6028 8.83239 38.8343 10.1278 40.85 10.1278ZM39.3968 6.06676C39.4352 5.32102 40.002 4.72443 40.8074 4.72443C41.5957 4.72443 42.1412 5.28693 42.1454 6.06676H39.3968ZM47.4508 10.1065C48.5076 10.1065 49.0574 9.49716 49.3088 8.9517H49.3855V10H51.1752V1.27273H49.3642V4.55398H49.3088C49.0659 4.02131 48.5417 3.36932 47.4466 3.36932C46.0105 3.36932 44.796 4.4858 44.796 6.7358C44.796 8.92614 45.9593 10.1065 47.4508 10.1065ZM48.0261 8.66193C47.1355 8.66193 46.6497 7.86932 46.6497 6.72727C46.6497 5.59375 47.127 4.81392 48.0261 4.81392C48.9082 4.81392 49.4025 5.55966 49.4025 6.72727C49.4025 7.89489 48.8997 8.66193 48.0261 8.66193ZM60.8912 5.32102C60.7292 4.11506 59.7576 3.36932 58.1042 3.36932C56.4295 3.36932 55.3258 4.14489 55.3301 5.40625C55.3258 6.38636 55.9437 7.02131 57.2221 7.27699L58.3556 7.50284C58.9267 7.6179 59.1866 7.8267 59.1951 8.15483C59.1866 8.54261 58.7647 8.8196 58.1298 8.8196C57.4821 8.8196 57.0517 8.54261 56.9409 8.00994L55.1554 8.10369C55.3258 9.35653 56.3912 10.1278 58.1255 10.1278C59.8216 10.1278 61.036 9.26278 61.0403 7.97159C61.036 7.02557 60.4181 6.45881 59.1483 6.19886L57.9636 5.96023C57.3542 5.82812 57.1284 5.61932 57.1326 5.30398C57.1284 4.91193 57.5716 4.65625 58.1341 4.65625C58.7647 4.65625 59.1397 5.00142 59.2292 5.4233L60.8912 5.32102ZM65.1664 10.1278C66.7857 10.1278 67.8766 9.33949 68.1323 8.125L66.4533 8.0142C66.2701 8.51278 65.8013 8.77273 65.1962 8.77273C64.2885 8.77273 63.7132 8.17188 63.7132 7.19602V7.19176H68.1706V6.69318C68.1706 4.46875 66.824 3.36932 65.0939 3.36932C63.1678 3.36932 61.9192 4.73722 61.9192 6.7571C61.9192 8.83239 63.1507 10.1278 65.1664 10.1278ZM63.7132 6.06676C63.7516 5.32102 64.3184 4.72443 65.1238 4.72443C65.9121 4.72443 66.4576 5.28693 66.4618 6.06676H63.7132ZM75.2701 3.45455H73.3482L71.9931 8.13778H71.9249L70.5655 3.45455H68.6479L70.9363 10H72.9817L75.2701 3.45455ZM76.199 10H78.0144V3.45455H76.199V10ZM77.111 2.6108C77.6522 2.6108 78.0953 2.19744 78.0953 1.69034C78.0953 1.1875 77.6522 0.774147 77.111 0.774147C76.574 0.774147 76.1309 1.1875 76.1309 1.69034C76.1309 2.19744 76.574 2.6108 77.111 2.6108ZM82.426 10.1278C84.1689 10.1278 85.264 9.10511 85.3493 7.60085H83.6362C83.5297 8.29972 83.0694 8.69176 82.4473 8.69176C81.5993 8.69176 81.0495 7.98011 81.0495 6.72727C81.0495 5.49148 81.6035 4.78409 82.4473 4.78409C83.112 4.78409 83.5382 5.22301 83.6362 5.875H85.3493C85.2726 4.36222 84.1262 3.36932 82.4174 3.36932C80.4316 3.36932 79.2044 4.74574 79.2044 6.75284C79.2044 8.7429 80.4103 10.1278 82.426 10.1278ZM89.4945 10.1278C91.1138 10.1278 92.2047 9.33949 92.4604 8.125L90.7814 8.0142C90.5982 8.51278 90.1294 8.77273 89.5243 8.77273C88.6167 8.77273 88.0414 8.17188 88.0414 7.19602V7.19176H92.4988V6.69318C92.4988 4.46875 91.1522 3.36932 89.4221 3.36932C87.4959 3.36932 86.2473 4.73722 86.2473 6.7571C86.2473 8.83239 87.4789 10.1278 89.4945 10.1278ZM88.0414 6.06676C88.0797 5.32102 88.6465 4.72443 89.4519 4.72443C90.2402 4.72443 90.7857 5.28693 90.79 6.06676H88.0414ZM95.7757 6.18182H96.9221L96.8113 4.53267L98.1919 5.45739L98.763 4.4517L97.28 3.72727L98.763 3.00284L98.1919 1.99716L96.8113 2.92188L96.9221 1.27273H95.7757L95.8823 2.92188L94.5016 1.99716L93.9306 3.00284L95.4178 3.72727L93.9306 4.4517L94.5016 5.45739L95.8823 4.53267L95.7757 6.18182Z" fill="black"/>
</svg>
